<svg xmlns="http://www.w3.org/2000/svg" xmlns:xlink="http://www.w3.org/1999/xlink" width="1500" height="1500" viewBox="0 0 1500 1500">
  <defs>
    <clipPath id="clip-undraw_new_year_2022_bxec">
      <rect width="1500" height="1500"/>
    </clipPath>
  </defs>
  <g id="undraw_new_year_2022_bxec" clip-path="url(#clip-undraw_new_year_2022_bxec)">
    <rect width="1500" height="1500" fill="#fff"/>
    <g id="undraw_new_year_2022_bxec-2" data-name="undraw_new_year_2022_bxec">
      <path id="Path_3875" data-name="Path 3875" d="M185.259,256.616c-3.518,15.456-5.19,32.979,4.193,46.81a32.136,32.136,0,0,0,16.634,12.6,47.2,47.2,0,0,0,21.2,1.3c16-2.217,30.229-10.554,45.969-13.79,6.946-1.428,14.318-1.9,21,.848,5.01,2.06,10.287,6.2,10.311,12.107.025,6.066-5.244,10.092-10.483,11.957-6.991,2.488-14.257,1.525-21.508,1.212-7.81-.338-15.774.368-22.262,5.151a38.719,38.719,0,0,0-12.373,16.775c-3.261,7.915-4.585,16.424-6.67,24.682a109.6,109.6,0,0,1-7.867,21.508,111.412,111.412,0,0,1-27.221,35.285c-5.6,4.821-12.407,9.732-20.057,10.174-5.9.341-13.073-2.139-15.347-8.115a11.653,11.653,0,0,1,5.455-13.834c5.057-2.552,10.564,1.088,12.2,6.085a7.788,7.788,0,0,1-.811,7.023c-1.533,2.286,2.16,4.424,3.683,2.153,3.536-5.273,1.688-12.364-2.643-16.588a12.424,12.424,0,0,0-16.351-1.219,16.155,16.155,0,0,0-5.906,16.693c1.819,6.565,8.27,10.74,14.711,11.775,7.954,1.277,15.61-1.849,22.031-6.365a98.759,98.759,0,0,0,17.446-16.115,115.8,115.8,0,0,0,23.1-41.306c4.7-15.046,5.037-34.922,18.989-45.083,7.179-5.229,15.976-4.649,24.393-4.169,7.43.424,14.679.347,21.5-3.017,5.629-2.778,10.17-7.9,10.264-14.436.095-6.594-4.587-11.9-10.1-14.9-14.572-7.936-32.071-1.536-46.387,3.766-14.4,5.332-30.833,11.59-46.133,5.979A28.616,28.616,0,0,1,190.4,296.458c-3.7-7.857-4.232-16.771-3.376-25.3a110.1,110.1,0,0,1,2.346-13.41c.608-2.673-3.5-3.814-4.113-1.134Z" transform="translate(-30.537 218.25)" fill="#3f3d56"/>
      <path id="Path_3876" data-name="Path 3876" d="M338.3,404.02c-20.667-1.633,3.72-15.309,5.352-35.976a37.537,37.537,0,0,1,74.841,5.912C416.857,394.622,358.963,405.652,338.3,404.02Z" transform="translate(42.92 251.319)" fill="#b0e0f6"/>
      <path id="Path_3877" data-name="Path 3877" d="M492.912,314.368a37.537,37.537,0,0,1-34.464-40.377c1.633-20.667-39.408-34.491-18.742-32.859s95.215,18.1,93.582,38.771A37.537,37.537,0,0,1,492.912,314.368Z" transform="translate(86.738 212.307)" fill="#b0e0f6"/>
      <path id="Path_3878" data-name="Path 3878" d="M574.039,260.833c2.724,5.65,1.118,12.178-2.479,17.056-4.091,5.548-10.6,8.284-17.274,9.188a53.168,53.168,0,0,1-21.359-1.759c-6.682-1.928-13.616-6.062-14.994-13.446-.919-4.922,1.181-10.174,6.292-11.538a12.307,12.307,0,0,1,11.651,3.161c4.244,4.417,3.921,11.506,1.224,16.637-3.172,6.034-9.519,9.363-16.045,10.462-7.759,1.306-15.555-.518-22.854-3.115-7.933-2.822-15.629-6.336-23.4-9.564-15.158-6.295-30.643-12.208-46.944-14.715-24.9-3.83-54.454,2.134-69.7,23.965-8.229,11.785-10.56,26.565-8.789,40.625,1.868,14.828,8.374,28.454,16.989,40.52a172.046,172.046,0,0,0,14.909,17.841,12.287,12.287,0,0,1,2.837,13.387c-4.723,11.6-23.6,7.905-25.011-4.055-.639-5.435,2.393-11.032,6.182-14.718a29.133,29.133,0,0,1,15.538-7.527c12.252-2.046,25.2,2.5,34.568,10.387,10.58,8.914,16.536,22.46,19.674,35.647,3.572,15.014,3.754,30.456,4.094,45.8.347,15.705.944,31.6,5.45,46.755A115.544,115.544,0,0,0,461.337,545.9,120.687,120.687,0,0,0,521.5,590.477a110.546,110.546,0,0,0,18,4.216c2.391.354,2.676-3.389.3-3.742-26.619-3.946-51.1-18.359-68.622-38.617a114.459,114.459,0,0,1-20.506-34.182c-5.715-15.062-7.164-31.062-7.63-47.048-.477-16.327-.217-32.8-3.486-48.884-2.89-14.218-8.558-28.616-19.055-38.976a48.691,48.691,0,0,0-35.584-14.179c-12.177.564-25.2,7.271-28.816,19.695a16.159,16.159,0,0,0,3.833,16.418,18.931,18.931,0,0,0,19.385,4.1,15.7,15.7,0,0,0,8.719-19.212,19.113,19.113,0,0,0-4.707-7.2c-10.985-11.732-21.066-24.86-26.536-40.136-5.1-14.248-6.149-30.638-.264-44.816,11.14-26.84,43.47-34.9,69.8-31.153,17.235,2.455,33.553,8.98,49.518,15.655,8.152,3.408,16.252,7.2,24.707,9.8,7.57,2.336,15.693,3.509,23.492,1.593,6.807-1.672,13.063-5.63,16.361-11.961,3-5.751,3.512-13.049-.05-18.683-5.15-8.146-19.37-9.978-24.552-.829-3.438,6.071-1.749,13.845,2.766,18.88,5.063,5.645,12.644,7.95,19.9,9.114,13.71,2.2,30.592.471,37.927-13.07A19.781,19.781,0,0,0,577.42,259.2a1.878,1.878,0,0,0-3.38,1.633Z" transform="translate(50.846 218.732)" fill="#3f3d56"/>
      <path id="Path_3879" data-name="Path 3879" d="M1101.9,357.02c20.667-1.633-3.719-15.309-5.352-35.976a37.537,37.537,0,0,0-74.841,5.912h0C1023.336,347.622,1081.23,358.652,1101.9,357.02Z" transform="translate(334.717 231.488)" fill="#b0e0f6"/>
      <path id="Path_3880" data-name="Path 3880" d="M950.5,267.368a37.537,37.537,0,0,0,34.464-40.377h0c-1.633-20.667,39.408-34.491,18.741-32.859s-95.215,18.1-93.582,38.771A37.537,37.537,0,0,0,950.5,267.368Z" transform="translate(287.678 192.476)" fill="#b0e0f6"/>
      <path id="Path_3881" data-name="Path 3881" d="M908.211,213.833c-2.724,5.65-1.118,12.178,2.479,17.056,4.091,5.548,10.6,8.284,17.274,9.188a53.168,53.168,0,0,0,21.359-1.759c6.682-1.928,13.616-6.062,14.994-13.446.919-4.922-1.181-10.174-6.292-11.538a12.306,12.306,0,0,0-11.651,3.161c-4.244,4.417-3.921,11.506-1.224,16.637,3.172,6.034,9.519,9.364,16.045,10.462,7.759,1.306,15.555-.518,22.854-3.115,7.933-2.822,15.629-6.336,23.4-9.564,15.158-6.295,30.643-12.208,46.944-14.715,24.9-3.83,54.454,2.134,69.7,23.965,8.229,11.785,10.56,26.565,8.789,40.625-1.868,14.828-8.374,28.454-16.989,40.52a172.023,172.023,0,0,1-14.909,17.841,12.287,12.287,0,0,0-2.836,13.387c4.722,11.6,23.6,7.905,25.01-4.055.639-5.435-2.393-11.032-6.182-14.718a29.133,29.133,0,0,0-15.538-7.527c-12.252-2.046-25.2,2.5-34.568,10.387-10.58,8.914-16.536,22.46-19.674,35.647-3.572,15.014-3.754,30.456-4.094,45.8-.347,15.705-.944,31.6-5.45,46.755a115.546,115.546,0,0,1-16.741,34.066,120.687,120.687,0,0,1-60.158,44.581,110.544,110.544,0,0,1-18,4.216c-2.391.354-2.676-3.389-.3-3.742,26.619-3.947,51.1-18.359,68.621-38.617a114.459,114.459,0,0,0,20.506-34.182c5.715-15.062,7.164-31.062,7.63-47.048.476-16.327.217-32.8,3.486-48.884,2.89-14.218,8.558-28.616,19.055-38.975a48.691,48.691,0,0,1,35.584-14.179c12.177.564,25.2,7.271,28.816,19.695a16.159,16.159,0,0,1-3.833,16.418,18.931,18.931,0,0,1-19.385,4.1,15.7,15.7,0,0,1-8.719-19.212,19.113,19.113,0,0,1,4.707-7.2c10.985-11.732,21.066-24.86,26.536-40.136,5.1-14.248,6.149-30.638.265-44.815-11.14-26.84-43.47-34.9-69.8-31.153-17.235,2.455-33.553,8.98-49.518,15.655-8.152,3.408-16.252,7.2-24.707,9.8-7.57,2.336-15.693,3.509-23.492,1.593-6.807-1.672-13.063-5.63-16.36-11.961-3-5.751-3.512-13.049.05-18.683,5.15-8.146,19.37-9.978,24.552-.829,3.438,6.071,1.749,13.845-2.767,18.88-5.063,5.645-12.644,7.95-19.9,9.114-13.71,2.2-30.592.471-37.927-13.071a19.781,19.781,0,0,1-1.026-18.062,1.878,1.878,0,0,1,3.38,1.633Z" transform="translate(284.734 198.9)" fill="#3f3d56"/>
      <path id="Path_3882" data-name="Path 3882" d="M531.044,632.116C495,584.534,509.294,530.227,488.176,492.341c-80.936-145.2,18.725-131.826,131.4-103.588l.269,3.133c-71.715,11.067-118.879,47.976-129.4,101.262-8.176,41.412,6.827,89.968,42.245,136.723Z" transform="translate(97.217 267.043)" fill="#b0e0f6"/>
      <path id="Path_3883" data-name="Path 3883" d="M878.526,638.34l-.753-2.986c40.235-18.242,36.778-72.574,72.775-84.981,274.215-94.514,3.535-105.172-57.35-155.166C838.753,350.5,779.416,298.522,704.005,271.752l.6-3.048c75.74,26.888,143.256,70.959,190.11,124.1,47.09,53.4,67.725,109.65,58.1,158.379C945.235,589.6,919.544,619.744,878.526,638.34Z" transform="translate(200.717 223.996)" fill="#b0e0f6"/>
      <ellipse id="Ellipse_675" data-name="Ellipse 675" cx="12.802" cy="8.905" rx="12.802" ry="8.905" transform="translate(720.807 525.026)" fill="#e6e6e6"/>
      <ellipse id="Ellipse_676" data-name="Ellipse 676" cx="12.802" cy="8.905" rx="12.802" ry="8.905" transform="translate(802.068 545.063)" fill="#dff1fd"/>
      <ellipse id="Ellipse_677" data-name="Ellipse 677" cx="12.802" cy="8.905" rx="12.802" ry="8.905" transform="translate(688.523 588.478)" fill="#fec230"/>
      <ellipse id="Ellipse_678" data-name="Ellipse 678" cx="12.802" cy="8.906" rx="12.802" ry="8.906" transform="translate(1058.102 655.269)" fill="#e6e6e6"/>
      <ellipse id="Ellipse_679" data-name="Ellipse 679" cx="12.802" cy="8.906" rx="12.802" ry="8.906" transform="translate(1139.363 675.306)" fill="#dff1fd"/>
      <ellipse id="Ellipse_680" data-name="Ellipse 680" cx="12.802" cy="8.906" rx="12.802" ry="8.906" transform="translate(1025.818 718.721)" fill="#fec230"/>
      <ellipse id="Ellipse_681" data-name="Ellipse 681" cx="12.802" cy="8.905" rx="12.802" ry="8.905" transform="translate(1033.611 452.669)" fill="#e6e6e6"/>
      <ellipse id="Ellipse_682" data-name="Ellipse 682" cx="12.802" cy="8.905" rx="12.802" ry="8.905" transform="translate(1114.875 472.707)" fill="#dff1fd"/>
      <ellipse id="Ellipse_683" data-name="Ellipse 683" cx="12.802" cy="8.905" rx="12.802" ry="8.905" transform="translate(1001.328 516.121)" fill="#fec230"/>
      <ellipse id="Ellipse_684" data-name="Ellipse 684" cx="8.091" cy="5.628" rx="8.091" ry="5.628" transform="translate(822.195 836.361)" fill="#e6e6e6"/>
      <ellipse id="Ellipse_685" data-name="Ellipse 685" cx="8.091" cy="5.628" rx="8.091" ry="5.628" transform="translate(873.555 849.025)" fill="#dff1fd"/>
      <ellipse id="Ellipse_686" data-name="Ellipse 686" cx="8.091" cy="5.628" rx="8.091" ry="5.628" transform="translate(801.793 876.463)" fill="#fec230"/>
      <ellipse id="Ellipse_687" data-name="Ellipse 687" cx="8.091" cy="5.628" rx="8.091" ry="5.628" transform="translate(804.385 647.12)" fill="#e6e6e6"/>
      <ellipse id="Ellipse_688" data-name="Ellipse 688" cx="8.091" cy="5.628" rx="8.091" ry="5.628" transform="translate(855.742 659.783)" fill="#dff1fd"/>
      <ellipse id="Ellipse_689" data-name="Ellipse 689" cx="8.091" cy="5.628" rx="8.091" ry="5.628" transform="translate(783.982 687.221)" fill="#fec230"/>
      <ellipse id="Ellipse_690" data-name="Ellipse 690" cx="8.091" cy="5.628" rx="8.091" ry="5.628" transform="translate(548.352 680.516)" fill="#e6e6e6"/>
      <ellipse id="Ellipse_691" data-name="Ellipse 691" cx="8.091" cy="5.628" rx="8.091" ry="5.628" transform="translate(599.711 693.179)" fill="#dff1fd"/>
      <ellipse id="Ellipse_692" data-name="Ellipse 692" cx="8.091" cy="5.628" rx="8.091" ry="5.628" transform="translate(527.949 720.617)" fill="#fec230"/>
      <ellipse id="Ellipse_693" data-name="Ellipse 693" cx="8.091" cy="5.628" rx="8.091" ry="5.628" transform="translate(1179.529 536.914)" fill="#e6e6e6"/>
      <ellipse id="Ellipse_694" data-name="Ellipse 694" cx="8.091" cy="5.628" rx="8.091" ry="5.628" transform="translate(1230.887 549.578)" fill="#dff1fd"/>
      <ellipse id="Ellipse_695" data-name="Ellipse 695" cx="8.091" cy="5.628" rx="8.091" ry="5.628" transform="translate(1159.127 577.016)" fill="#fec230"/>
      <path id="Path_3884" data-name="Path 3884" d="M200.76,289.3a13.021,13.021,0,0,1,10.572,16.938l53.521,106.287-22.8,6.8L193.982,314.4a13.092,13.092,0,0,1,6.778-25.1Z" transform="translate(-17.951 232.625)" fill="#f68389"/>
      <path id="Path_3885" data-name="Path 3885" d="M278.375,450.914s6.634-1.819.073-14.833c-5.253-10.419-31.32-77.4-42.181-89.42a10.229,10.229,0,0,0-.676-12.523l-27.347,19.642c-.868,7.579,2.576,13.462,5.571,13.348L222.12,386.5l21.205,66.546,30.277-.729Z" transform="translate(-8.523 251.606)" fill="#fec230"/>
      <path id="Path_3886" data-name="Path 3886" d="M145.084,321.167l2.665,24.716-1.568,32.409,71.787-8.529,6.746-48.6-8.594.085Z" transform="translate(116.217 417.515)" fill="#ffb6b6"/>
      <path id="Path_3887" data-name="Path 3887" d="M318.159,392.126,291.142,370.8h0l-14.182-.825-21.044,13.481-17.642,8.984.3,46.907,20.283,84,72.519-2.844,9.546-59.9s22.175-29.784-1.706-46.842Z" transform="translate(4.205 266.725)" fill="#fec230"/>
      <path id="Path_3888" data-name="Path 3888" d="M118.9,654.7h15.7l7.468-60.538H118.9Z" transform="translate(105.168 532.706)" fill="#f68389"/>
      <path id="Path_3889" data-name="Path 3889" d="M222.662,750.152l25.075-1.5V759.4l23.839,16.464a6.71,6.71,0,0,1-3.813,12.233H237.91l-5.145-10.626L230.755,788.1H219.5Z" transform="translate(-3.717 426.509)" fill="#2f2e41"/>
      <path id="Path_3890" data-name="Path 3890" d="M180.9,654.7h15.7l7.468-60.538H180.9Z" transform="translate(131.328 532.706)" fill="#f68389"/>
      <path id="Path_3891" data-name="Path 3891" d="M284.661,750.152l25.074-1.5V759.4l23.839,16.464a6.71,6.71,0,0,1-3.813,12.233H299.91l-5.145-10.626L292.755,788.1H281.5Z" transform="translate(22.443 426.509)" fill="#2f2e41"/>
      <path id="Path_3892" data-name="Path 3892" d="M221.794,823.872h.171l3.018-98.432a25.739,25.739,0,0,1,.338-24.323l.432-.782-1.12-5.194a33.083,33.083,0,0,1,1.891-19.911l2.816-91.819c-10.06-65.2,37.883-107.717,37.883-107.717h71.82l15.419,52.976c10.193,99.309,8.344,196.083-7.832,289.841l.441.223c1.588.548,2.269,2.748,1.521,4.913s-2.64,3.477-4.228,2.928l-37.929-1.319c-1.588-.548-2.269-2.748-1.521-4.913s2.64-3.476,4.228-2.928l2.579,1.3-5.5-94.983.61-17.349L305.573,686.7l-5.814-88.531L277.753,707.042,255.275,824.967a4.135,4.135,0,0,1-2.788,7.2H221.794a4.148,4.148,0,0,1,0-8.3Z" transform="translate(-4.5 311.334)" fill="#028ffa"/>
      <path id="Path_3893" data-name="Path 3893" d="M304.723,569.936a13.021,13.021,0,0,0,.323-19.964L298.22,431.83l-25.17,5.413,12.92,114.682a13.092,13.092,0,0,0,18.753,18.011Z" transform="translate(18.879 292.826)" fill="#f68389"/>
      <path id="Path_3894" data-name="Path 3894" d="M291.509,388.592s6.622-1.863,7.711,12.671c.872,11.635,13.082,82.466,9.975,98.365a10.229,10.229,0,0,1,5.879,11.078l-33.559-2.726c-4.652-6.046-4.735-12.862-2.111-14.309l-2.872-20.877-16.15-67.95L286.7,389.854Z" transform="translate(13.533 274.549)" fill="#fec230"/>
      <circle id="Ellipse_696" data-name="Ellipse 696" cx="33.95" cy="33.95" r="33.95" transform="translate(249.303 566.374)" fill="#ffb8b8"/>
      <path id="Path_3895" data-name="Path 3895" d="M222.988,431.819q-10.776-3.819-21.553-7.652a21.7,21.7,0,0,1,4.666-5.492c6.84-5.712,16.282-6.744,24.966-8.671s18.14-5.877,21.319-14.19c3.3-8.643-1.486-17.975-4.267-26.783-3.895-12.29-3.812-26.012,1.4-37.794S265.337,309.9,277.916,307.1s26.8,1.762,34.532,12.057a21.292,21.292,0,0,1,25.627,11.864c1.8,4.514,1.858,9.951-.826,14.011s-8.423,6.138-12.745,3.881l2.5-6.359c-7.749,2.629-12.786,16.64-11.74,24.76s5.767,15.208,10.57,21.828,9.923,13.309,11.988,21.223c2.973,11.382-1.046,23.824-8.478,32.949s-17.906,15.318-28.751,19.874a133.275,133.275,0,0,1-25.186,7.762c1.541-3,3.069-6,4.611-9l-18.291,11.066c-3.537.344-7.1.551-10.666.619-10.377.179-20.961-.908-30.458-5.051S202.742,456.9,199.3,447.109a27.826,27.826,0,0,1-1.541-9.854Q210.373,434.53,222.988,431.819Z" transform="translate(-12.895 239.854)" fill="#2f2e41"/>
      <path id="Path_3896" data-name="Path 3896" d="M277.024,212.989c0-47.119-34.607-92.462-77.014-92.462s-76.556,45.343-76.556,92.462c0,41.374,26.509,75.86,61.682,83.657a62.2,62.2,0,0,0-3.382,18.012c0,12.958,7.262.675,18.256.675s21.558,12.282,21.558-.675a62.969,62.969,0,0,0-3.6-18.663C251.822,287.1,277.024,253.326,277.024,212.989Z" transform="translate(-44.244 161.473)" fill="#b0e0f6"/>
      <path id="Path_3897" data-name="Path 3897" d="M166.667,247.033l33.316.748c2.746.062,2.745-4.2,0-4.266l-33.316-.748C163.921,242.705,163.922,246.971,166.667,247.033Z" transform="translate(-26.879 213.051)" fill="#3f3d56"/>
      <path id="Path_3898" data-name="Path 3898" d="M531.627,777.317c-1.091,3.232-424.022,2.928-425.2-.3C107.517,773.782,530.448,774.086,531.627,777.317Z" transform="translate(-51.428 437.514)" fill="#362b2a"/>
      <path id="Path_3899" data-name="Path 3899" d="M586.4,615.883c-19.721-1.215-39.455-2.194-59.193-3.073-13.3-.592-26.615-1.078-39.9-1.976-4.662-.315-9.326-.689-13.963-1.278-1.216-.178-2.436-.378-3.646-.625.178-.221.353-.443.534-.661.954-1.154,1.935-2.286,2.929-3.4,5.262-5.921,10.834-11.566,16.326-17.272,7.743-8.043,15.426-16.144,22.923-24.418q14.621-16.138,28.3-33.092,3.873-4.806,7.666-9.677,2.654-3.408,5.281-6.836.991-1.293,1.976-2.591l.916-1.209c.3-.4,1.609-2.112.658-.887q.843-1.09,1.685-2.182.57-.741,1.134-1.486,1.294-1.716,2.545-3.463,2.255-3.154,4.358-6.413a143.176,143.176,0,0,0,7.317-12.716c8.279-16.311,13.7-34.342,13.587-52.756a82.623,82.623,0,0,0-12.321-43.775,74.391,74.391,0,0,0-32.722-28.261A88.479,88.479,0,0,0,518.2,351.2a94.131,94.131,0,0,0-24.781.569C474.6,354.38,456.55,362.419,440.764,372.8c-5.032,3.309-9.842,6.925-14.57,10.653-2,1.576-3.124,5.126-3.124,7.541a10.853,10.853,0,0,0,3.124,7.541,10.731,10.731,0,0,0,7.541,3.124,12.426,12.426,0,0,0,7.541-3.124l.661-.519q1-.759,2.008-1.505,2.129-1.572,4.3-3.08,4.309-2.985,8.805-5.687a140.477,140.477,0,0,1,16.047-8.276,109.2,109.2,0,0,1,24.86-6.951A85.6,85.6,0,0,1,517,372.4a72.764,72.764,0,0,1,16.291,4.415,66.548,66.548,0,0,1,6.973,3.671q2.074,1.26,4.05,2.675c.184.132.595.439.946.7q.5.407.993.824a63.566,63.566,0,0,1,6.719,6.608q.732.835,1.435,1.7c.07.086.139.174.209.261q1.356,1.834,2.583,3.759a66.56,66.56,0,0,1,4.422,8.228,73.106,73.106,0,0,1,4.387,16.251,85.45,85.45,0,0,1-.108,18.98,107.634,107.634,0,0,1-6.872,24.579A142.939,142.939,0,0,1,545.2,489.506q-1.132,1.62-2.3,3.213-.548.745-1.1,1.485c-.144.191-.624.82-.885,1.163-.577.737-1.143,1.473-1.706,2.218l-.919,1.219q-1.064,1.408-2.135,2.811-.906,1.188-1.818,2.373l-.022.029-.716.923q-1.923,2.472-3.866,4.928-13.929,17.6-28.905,34.338c-7.765,8.684-15.736,17.178-23.8,25.581-5.8,6.039-11.683,12-17.32,18.19-3.99,4.38-8.277,8.974-11.076,14.232-3,5.639-4.194,12.426-.483,18.092,3.536,5.4,9.712,7.884,15.8,9.153a174.514,174.514,0,0,0,24.017,2.753c11.585.767,23.191,1.222,34.789,1.734,16.44.727,32.877,1.494,49.307,2.423q7.172.405,14.341.848c5.579.344,10.911-5.151,10.665-10.665A10.912,10.912,0,0,0,586.4,615.883Z" transform="translate(82.178 258.569)" fill="#028ffa"/>
      <path id="Path_3900" data-name="Path 3900" d="M759.936,437.019a336.56,336.56,0,0,0-3.284-40.111,301.128,301.128,0,0,0-7.206-36.246,238.647,238.647,0,0,0-12.04-34.527,122.774,122.774,0,0,0-14.331-25.188c-5.707-7.512-12.264-14.6-20.69-19.112a40.815,40.815,0,0,0-11.58-4.3c-.558-.1-1.111-.176-1.662-.226-.384-.066-.775-.119-1.174-.155a75.805,75.805,0,0,0-35.233,4.891,78.932,78.932,0,0,0-29.12,20.438,109.582,109.582,0,0,0-18.879,30.111,167.947,167.947,0,0,0-11.058,37.422,227.285,227.285,0,0,0-3.347,41.559,242.8,242.8,0,0,0,4.241,41.834,189.73,189.73,0,0,0,10.56,36.478,139.7,139.7,0,0,0,17.943,32.635c7.434,9.7,16.09,18.359,26.739,24.542a73.768,73.768,0,0,0,16.226,6.973,110,110,0,0,0,15.173,3.826,61.82,61.82,0,0,0,16.275.6,58.342,58.342,0,0,0,16.852-4.511c9.212-3.991,16.547-10.986,22.555-18.873A95.812,95.812,0,0,0,750.664,507.8a174.569,174.569,0,0,0,7.421-34.482,252.481,252.481,0,0,0,1.852-36.3Zm-21.83,22.133q-.474,7.305-1.42,14.569a157.358,157.358,0,0,1-6.548,28.284c-.688,2.021-1.448,4.017-2.249,6a79.3,79.3,0,0,1-8.5,15.091l-.046.061c-.34.422-.677.844-1.028,1.257q-1.333,1.566-2.779,3.031t-3.027,2.815c-.267.228-.542.447-.816.667-.133.1-.264.194-.4.288a31.091,31.091,0,0,1-14.585,5.975,51.694,51.694,0,0,1-10.986-.087,71.494,71.494,0,0,1-9.608-2.258c-3.235-1-6.488-1.965-9.644-3.2a65.417,65.417,0,0,1-9.883-5.511c-.842-.571-1.664-1.169-2.483-1.773-.273-.219-.547-.437-.816-.66q-2.578-2.132-4.967-4.48t-4.6-4.869q-1.167-1.332-2.283-2.708c-.231-.285-.458-.572-.686-.859a115.044,115.044,0,0,1-7.8-11.911,141.776,141.776,0,0,1-6.989-14.047,189.6,189.6,0,0,1-10.8-36.933c-.639-3.376-1.182-6.768-1.663-10.17a226.6,226.6,0,0,1-1.306-44.8c.28-3.923.686-7.835,1.186-11.736a171.593,171.593,0,0,1,7.442-31.515c.874-2.535,1.833-5.039,2.852-7.519a106.444,106.444,0,0,1,11.873-20.839c.058-.078.146-.195.242-.322l.064-.08q1-1.25,2.049-2.461,1.9-2.192,3.956-4.241,2.122-2.11,4.411-4.042c.338-.284,1-.8,1.48-1.171.421-.31.836-.627,1.266-.926a51.893,51.893,0,0,1,23.86-9.469,75.178,75.178,0,0,1,13.558-.228,30.438,30.438,0,0,1,3.4,1.008,40.606,40.606,0,0,1,6.427,3.817c.079.065.16.128.238.194q.923.771,1.809,1.584c1.252,1.148,2.451,2.354,3.6,3.6,1.135,1.234,2.219,2.514,3.264,3.823.134.178.268.356.4.536q.829,1.13,1.623,2.285a113.255,113.255,0,0,1,6.343,10.451c2.08,3.858,3.959,7.819,5.7,11.84a251.152,251.152,0,0,1,14.459,50.331c.891,4.792,1.653,9.607,2.322,14.435a295.51,295.51,0,0,1,2.076,56.863Z" transform="translate(152.746 227.403)" fill="#028ffa"/>
      <path id="Path_3901" data-name="Path 3901" d="M900.316,615.883c-19.721-1.215-39.455-2.194-59.193-3.073-13.3-.592-26.615-1.078-39.9-1.976-4.662-.315-9.326-.689-13.963-1.278-1.216-.178-2.436-.378-3.646-.625.178-.221.353-.443.534-.661.954-1.154,1.935-2.286,2.929-3.4,5.262-5.921,10.834-11.566,16.326-17.272,7.743-8.043,15.426-16.144,22.923-24.418q14.622-16.138,28.3-33.092,3.873-4.806,7.666-9.677,2.654-3.408,5.281-6.836.991-1.293,1.976-2.591l.916-1.209c.3-.4,1.609-2.112.658-.887q.843-1.09,1.685-2.182.57-.741,1.134-1.486,1.294-1.716,2.545-3.463,2.255-3.154,4.358-6.413a143.136,143.136,0,0,0,7.317-12.716c8.279-16.311,13.7-34.342,13.587-52.756a82.622,82.622,0,0,0-12.321-43.775,74.389,74.389,0,0,0-32.722-28.261,88.478,88.478,0,0,0-24.593-6.629,94.131,94.131,0,0,0-24.781.569c-18.821,2.609-36.869,10.648-52.655,21.029-5.032,3.309-9.842,6.925-14.569,10.653-2,1.576-3.124,5.126-3.124,7.541a10.853,10.853,0,0,0,3.124,7.541,10.731,10.731,0,0,0,7.541,3.124,12.426,12.426,0,0,0,7.541-3.124l.661-.519q1-.759,2.007-1.505,2.129-1.572,4.3-3.08,4.309-2.985,8.806-5.687a140.468,140.468,0,0,1,16.047-8.276,109.2,109.2,0,0,1,24.86-6.951,85.6,85.6,0,0,1,19.039-.113,72.761,72.761,0,0,1,16.291,4.415,66.532,66.532,0,0,1,6.973,3.671q2.074,1.26,4.05,2.675c.184.132.595.439.946.7q.5.407.993.824a63.57,63.57,0,0,1,6.719,6.608q.732.835,1.435,1.7c.07.086.139.174.209.261q1.356,1.834,2.583,3.759a66.567,66.567,0,0,1,4.421,8.228,73.1,73.1,0,0,1,4.387,16.251,85.461,85.461,0,0,1-.108,18.98,107.634,107.634,0,0,1-6.872,24.579,142.938,142.938,0,0,1-13.822,24.452q-1.132,1.62-2.3,3.213-.547.745-1.1,1.485c-.144.191-.624.82-.885,1.163-.577.737-1.143,1.473-1.706,2.218L852.2,498.8q-1.064,1.408-2.135,2.811-.907,1.188-1.818,2.373l-.022.029-.716.923q-1.922,2.472-3.866,4.928-13.928,17.6-28.905,34.338c-7.765,8.684-15.736,17.178-23.8,25.581-5.8,6.039-11.683,12-17.32,18.19-3.99,4.38-8.277,8.974-11.076,14.232-3,5.639-4.194,12.426-.484,18.092,3.536,5.4,9.712,7.884,15.8,9.153a174.508,174.508,0,0,0,24.017,2.753c11.585.767,23.191,1.222,34.789,1.734,16.44.727,32.877,1.494,49.307,2.423q7.172.405,14.341.848c5.579.344,10.911-5.151,10.665-10.665a10.912,10.912,0,0,0-10.665-10.664Z" transform="translate(214.633 258.569)" fill="#028ffa"/>
      <path id="Path_3902" data-name="Path 3902" d="M1056.45,515.1c-19.721-1.215-39.455-2.194-59.193-3.073-13.3-.592-26.615-1.078-39.9-1.976-4.662-.315-9.326-.689-13.963-1.278-1.216-.178-2.436-.378-3.646-.625.178-.221.353-.443.534-.661.954-1.154,1.935-2.286,2.929-3.4,5.262-5.921,10.834-11.566,16.326-17.272,7.743-8.043,15.426-16.144,22.923-24.418q14.621-16.138,28.3-33.092,3.873-4.806,7.666-9.677,2.654-3.408,5.281-6.836.991-1.293,1.976-2.591l.916-1.209c.3-.4,1.609-2.112.658-.887q.843-1.09,1.685-2.182.57-.741,1.134-1.486,1.294-1.716,2.545-3.463,2.255-3.154,4.358-6.413a143.215,143.215,0,0,0,7.317-12.716c8.279-16.311,13.7-34.342,13.587-52.756a82.621,82.621,0,0,0-12.321-43.775,74.39,74.39,0,0,0-32.722-28.261,88.479,88.479,0,0,0-24.593-6.629,94.128,94.128,0,0,0-24.781.569c-18.821,2.609-36.869,10.648-52.655,21.029-5.032,3.309-9.842,6.925-14.57,10.653-2,1.576-3.124,5.126-3.124,7.541a10.853,10.853,0,0,0,3.124,7.541,10.731,10.731,0,0,0,7.541,3.124,12.426,12.426,0,0,0,7.541-3.124l.661-.519q1-.759,2.008-1.505,2.129-1.572,4.3-3.08,4.309-2.985,8.805-5.687a140.467,140.467,0,0,1,16.047-8.276,109.2,109.2,0,0,1,24.86-6.951,85.6,85.6,0,0,1,19.039-.113,72.759,72.759,0,0,1,16.291,4.415,66.516,66.516,0,0,1,6.973,3.671q2.074,1.26,4.05,2.675c.184.132.595.439.946.7q.5.407.993.824a63.571,63.571,0,0,1,6.719,6.608q.732.835,1.435,1.7c.07.086.139.174.209.261q1.356,1.834,2.583,3.759a66.564,66.564,0,0,1,4.422,8.228,73.1,73.1,0,0,1,4.387,16.251,85.447,85.447,0,0,1-.108,18.98,107.634,107.634,0,0,1-6.872,24.579,142.922,142.922,0,0,1-13.822,24.452q-1.132,1.62-2.3,3.213-.547.745-1.1,1.485c-.144.191-.624.82-.885,1.163-.577.737-1.143,1.473-1.706,2.218l-.919,1.219q-1.064,1.408-2.135,2.811-.907,1.188-1.818,2.373l-.022.029-.716.923q-1.922,2.472-3.866,4.928-13.928,17.6-28.905,34.338c-7.765,8.684-15.736,17.178-23.8,25.581-5.8,6.039-11.683,12-17.32,18.19-3.99,4.38-8.277,8.974-11.076,14.232-3,5.639-4.193,12.426-.484,18.092,3.536,5.4,9.712,7.884,15.8,9.153a174.546,174.546,0,0,0,24.017,2.752c11.585.767,23.191,1.222,34.789,1.735,16.44.727,32.877,1.494,49.307,2.423q7.172.405,14.341.848c5.579.344,10.911-5.151,10.665-10.665A10.912,10.912,0,0,0,1056.45,515.1Z" transform="translate(280.514 216.046)" fill="#028ffa"/>
      <path id="Path_2736" data-name="Path 2736" d="M426.055,778.993h-27.7V658.413h-9.634V778.993h-27.7a15.832,15.832,0,0,0-15.655,16H441.71A15.832,15.832,0,0,0,426.055,778.993Z" transform="translate(127.418 418.095)" fill="#b0e0f6"/>
      <path id="Path_2722" data-name="Path 2722" d="M318.32,661.693c-16.635-.008-30.113-13.8-30.105-30.806a31.376,31.376,0,0,1,2.365-11.944l4.439,1.912a26.081,26.081,0,0,0,13.492,33.884,24.8,24.8,0,0,0,19.19.194l1.788,4.573A29.391,29.391,0,0,1,318.32,661.693Z" transform="translate(115.332 409.75)" fill="#dff1fd"/>
      <path id="Path_2723" data-name="Path 2723" d="M249.877,528.9H212.546v-9.848l30.105-8.618Z" transform="translate(230.137 541.923)" fill="#dff1fd"/>
      <path id="Path_2724" data-name="Path 2724" d="M340.4,645.595h98.746a20.7,20.7,0,0,1-20.472,20.928h-57.8A20.7,20.7,0,0,1,340.4,645.595Z" transform="translate(126.367 415.385)" fill="#dff1fd"/>
      <path id="Path_2725" data-name="Path 2725" d="M451.3,661.03H341.72a14.774,14.774,0,1,1,0-29.549l109.583,0a14.774,14.774,0,1,1,0,29.549Z" transform="translate(123.521 412.401)" fill="#b0e0f6"/>
      <path id="Path_2735" data-name="Path 2735" d="M297.408,661.533a23.165,23.165,0,0,1-22.88-23.39V506.421a22.883,22.883,0,1,1,45.766,0l-.006,131.722a23.165,23.165,0,0,1-22.88,23.39Z" transform="translate(112.439 381.122)" fill="#b0e0f6"/>
      <rect id="Rectangle_934" data-name="Rectangle 934" width="1500" height="1500" fill="#fff" opacity="0"/>
    </g>
  </g>
</svg>
